<svg width="18" height="18" viewBox="0 0 18 18" fill="none" xmlns="http://www.w3.org/2000/svg">
<g clip-path="url(#clip0_206_3981)">
<path fill-rule="evenodd" clip-rule="evenodd" d="M8.97122 0.272858C10.5938 0.291373 12.0596 0.690154 13.3687 1.4692C14.6622 2.23269 15.7382 3.31526 16.4938 4.61339C17.2681 5.93037 17.6645 7.40509 17.683 9.03755C17.637 11.2711 16.9325 13.1788 15.5695 14.7607C14.2065 16.3425 12.4608 17.3211 10.6537 17.6962V11.434H12.3622L12.7485 8.97301H10.1615V7.36117C10.1471 7.02702 10.2528 6.69876 10.4594 6.43574C10.6663 6.17201 11.0306 6.03339 11.5524 6.01989H13.1146V3.86416C13.0922 3.85695 12.8795 3.82843 12.4765 3.77861C12.0195 3.72514 11.5599 3.69657 11.0998 3.69305C10.0584 3.69786 9.2348 3.99161 8.62898 4.57433C8.02315 5.15688 7.71368 5.9997 7.70056 7.1028V8.97301H5.73181V11.434H7.70056V17.6962C5.48168 17.3211 3.73599 16.3425 2.37298 14.7607C1.00997 13.1788 0.305513 11.2711 0.259521 9.03755C0.277922 7.40502 0.674293 5.9303 1.44863 4.61339C2.20424 3.31526 3.28024 2.2327 4.57373 1.4692C5.8828 0.690304 7.34863 0.291523 8.97122 0.272858V0.272858Z" fill="black"/>
</g>
<defs>
<clipPath id="clip0_206_3981">
<rect width="18" height="18" fill="white"/>
</clipPath>
</defs>
</svg>
