<svg width="18" height="18" viewBox="0 0 18 18" fill="none" xmlns="http://www.w3.org/2000/svg">
<g clip-path="url(#clip0_225_891)">
<path fill-rule="evenodd" clip-rule="evenodd" d="M8.97122 0.272827C10.5938 0.291343 12.0596 0.690124 13.3687 1.46917C14.6622 2.23266 15.7382 3.31523 16.4938 4.61336C17.2681 5.93034 17.6645 7.40506 17.683 9.03752C17.637 11.2711 16.9325 13.1788 15.5695 14.7606C14.2065 16.3425 12.4608 17.3211 10.6537 17.6962V11.4339H12.3622L12.7485 8.97298H10.1615V7.36114C10.1471 7.02699 10.2528 6.69873 10.4594 6.43571C10.6663 6.17198 11.0306 6.03336 11.5524 6.01986H13.1146V3.86413C13.0922 3.85692 12.8795 3.8284 12.4765 3.77858C12.0195 3.72511 11.5599 3.69654 11.0998 3.69302C10.0584 3.69783 9.2348 3.99158 8.62898 4.5743C8.02315 5.15685 7.71368 5.99967 7.70056 7.10277V8.97298H5.73181V11.4339H7.70056V17.6962C5.48168 17.3211 3.73599 16.3425 2.37298 14.7606C1.00997 13.1788 0.305513 11.2711 0.259521 9.03752C0.277922 7.40499 0.674293 5.93027 1.44863 4.61336C2.20424 3.31523 3.28024 2.23266 4.57373 1.46917C5.8828 0.690274 7.34863 0.291493 8.97122 0.272827Z" fill="white"/>
</g>
<defs>
<clipPath id="clip0_225_891">
<rect width="18" height="18" fill="white"/>
</clipPath>
</defs>
</svg>
