<svg width="18" height="18" viewBox="0 0 18 18" fill="none" xmlns="http://www.w3.org/2000/svg">
<g clip-path="url(#clip0_206_3991)">
<path d="M9 0C4.03742 0 0 4.03742 0 9C0 13.9622 4.03742 18 9 18C13.9622 18 18 13.9622 18 9C18 4.03742 13.9629 0 9 0ZM13.0149 6.94014C13.0189 7.02932 13.0211 7.11923 13.0211 7.20913C13.0211 9.94655 10.938 13.1019 7.12684 13.1019C5.95698 13.1019 4.86796 12.7601 3.9515 12.1721C4.11355 12.1913 4.2785 12.2011 4.44562 12.2011C5.41646 12.2011 6.30935 11.8697 7.01845 11.3143C6.11214 11.2977 5.34685 10.6988 5.0833 9.87549C5.20946 9.89942 5.3396 9.91283 5.47265 9.91283C5.66152 9.91283 5.84496 9.88818 6.01861 9.84069C5.07097 9.65073 4.35716 8.81366 4.35716 7.80947C4.35716 7.80077 4.35716 7.79171 4.35753 7.78337C4.63667 7.93817 4.95605 8.0317 5.29537 8.04221C4.73999 7.67135 4.3742 7.03694 4.3742 6.31842C4.3742 5.93849 4.47607 5.58249 4.65443 5.27652C5.67566 6.53013 7.20261 7.35451 8.92387 7.44151C8.88834 7.28961 8.87058 7.13192 8.87058 6.96914C8.87058 5.82538 9.79791 4.89769 10.9417 4.89769C11.5377 4.89769 12.0753 5.14928 12.4538 5.55168C12.9261 5.45887 13.3684 5.28704 13.7697 5.04886C13.6138 5.53283 13.2865 5.93849 12.8576 6.19516C13.277 6.14513 13.6773 6.0342 14.0474 5.86925C13.7712 6.28398 13.4199 6.64904 13.0149 6.94014Z" fill="black"/>
</g>
<defs>
<clipPath id="clip0_206_3991">
<rect width="18" height="18" fill="white"/>
</clipPath>
</defs>
</svg>
