<svg width="164" height="20" viewBox="0 0 164 20" fill="none" xmlns="http://www.w3.org/2000/svg">
<g clip-path="url(#clip0_66_502)">
<path d="M1.29043 5.99991C0.948184 5.99991 0.619959 6.07015 0.377957 6.19517C0.135955 6.32019 0 6.48976 0 6.66658V13.3332C0 13.5101 0.135955 13.6796 0.377957 13.8046C0.619959 13.9297 0.948184 13.9999 1.29043 13.9999C1.63267 13.9999 1.96089 13.9297 2.2029 13.8046C2.4449 13.6796 2.58085 13.5101 2.58085 13.3332V6.66658C2.58085 6.48976 2.4449 6.32019 2.2029 6.19517C1.96089 6.07015 1.63267 5.99991 1.29043 5.99991Z" fill="#C4C4C4"/>
<path d="M6.45156 2.66699C6.10932 2.66699 5.78109 2.73723 5.53909 2.86225C5.29709 2.98728 5.16113 3.15685 5.16113 3.33366V16.667C5.16113 16.8438 5.29709 17.0134 5.53909 17.1384C5.78109 17.2634 6.10932 17.3337 6.45156 17.3337C6.7938 17.3337 7.12203 17.2634 7.36403 17.1384C7.60603 17.0134 7.74198 16.8438 7.74198 16.667V3.33366C7.74198 3.15685 7.60603 2.98728 7.36403 2.86225C7.12203 2.73723 6.7938 2.66699 6.45156 2.66699Z" fill="#C4C4C4"/>
<path d="M21.9369 6C21.5947 6 21.2664 6.07024 21.0244 6.19526C20.7824 6.32029 20.6465 6.48986 20.6465 6.66667V13.3333C20.6465 13.5101 20.7824 13.6797 21.0244 13.8047C21.2664 13.9298 21.5947 14 21.9369 14C22.2792 14 22.6074 13.9298 22.8494 13.8047C23.0914 13.6797 23.2273 13.5101 23.2273 13.3333V6.66667C23.2273 6.48986 23.0914 6.32029 22.8494 6.19526C22.6074 6.07024 22.2792 6 21.9369 6Z" fill="#C4C4C4"/>
<path d="M16.7748 2.66699C16.4326 2.66699 16.1043 2.73723 15.8623 2.86225C15.6203 2.98728 15.4844 3.15685 15.4844 3.33366V16.667C15.4844 16.8438 15.6203 17.0134 15.8623 17.1384C16.1043 17.2634 16.4326 17.3337 16.7748 17.3337C17.117 17.3337 17.4453 17.2634 17.6873 17.1384C17.9293 17.0134 18.0652 16.8438 18.0652 16.667V3.33366C18.0652 3.15685 17.9293 2.98728 17.6873 2.86225C17.4453 2.73723 17.117 2.66699 16.7748 2.66699Z" fill="#C4C4C4"/>
<path d="M11.6127 0C11.2704 0 10.9422 0.0702379 10.7002 0.195262C10.4582 0.320286 10.3223 0.489856 10.3223 0.666667V19.3333C10.3223 19.5101 10.4582 19.6797 10.7002 19.8047C10.9422 19.9298 11.2704 20 11.6127 20C11.9549 20 12.2832 19.9298 12.5252 19.8047C12.7672 19.6797 12.9031 19.5101 12.9031 19.3333V0.666667C12.9031 0.489856 12.7672 0.320286 12.5252 0.195262C12.2832 0.0702379 11.9549 0 11.6127 0Z" fill="#C4C4C4"/>
<path d="M37.4223 6C37.08 6 36.7518 6.07024 36.5098 6.19526C36.2678 6.32029 36.1318 6.48986 36.1318 6.66667V13.3333C36.1318 13.5101 36.2678 13.6797 36.5098 13.8047C36.7518 13.9298 37.08 14 37.4223 14C37.7645 14 38.0927 13.9298 38.3347 13.8047C38.5767 13.6797 38.7127 13.5101 38.7127 13.3333V6.66667C38.7127 6.48986 38.5767 6.32029 38.3347 6.19526C38.0927 6.07024 37.7645 6 37.4223 6Z" fill="#C4C4C4"/>
<path d="M32.2602 2.66699C31.9179 2.66699 31.5897 2.73723 31.3477 2.86225C31.1057 2.98728 30.9697 3.15685 30.9697 3.33366V16.667C30.9697 16.8438 31.1057 17.0134 31.3477 17.1384C31.5897 17.2634 31.9179 17.3337 32.2602 17.3337C32.6024 17.3337 32.9306 17.2634 33.1726 17.1384C33.4146 17.0134 33.5506 16.8438 33.5506 16.667V3.33366C33.5506 3.15685 33.4146 2.98728 33.1726 2.86225C32.9306 2.73723 32.6024 2.66699 32.2602 2.66699Z" fill="#C4C4C4"/>
<path d="M27.099 0C26.7568 0 26.4286 0.0702379 26.1865 0.195262C25.9445 0.320286 25.8086 0.489856 25.8086 0.666667V19.3333C25.8086 19.5101 25.9445 19.6797 26.1865 19.8047C26.4286 19.9298 26.7568 20 27.099 20C27.4413 20 27.7695 19.9298 28.0115 19.8047C28.2535 19.6797 28.3894 19.5101 28.3894 19.3333V0.666667C28.3894 0.489856 28.2535 0.320286 28.0115 0.195262C27.7695 0.0702379 27.4413 0 27.099 0Z" fill="#C4C4C4"/>
<path d="M104.525 5.99991C104.183 5.99991 103.854 6.07015 103.612 6.19517C103.37 6.32019 103.234 6.48976 103.234 6.66658V13.3332C103.234 13.5101 103.37 13.6796 103.612 13.8046C103.854 13.9297 104.183 13.9999 104.525 13.9999C104.867 13.9999 105.195 13.9297 105.437 13.8046C105.679 13.6796 105.815 13.5101 105.815 13.3332V6.66658C105.815 6.48976 105.679 6.32019 105.437 6.19517C105.195 6.07015 104.867 5.99991 104.525 5.99991Z" fill="#C4C4C4"/>
<path d="M109.687 2.66699C109.345 2.66699 109.016 2.73723 108.774 2.86225C108.532 2.98728 108.396 3.15685 108.396 3.33366V16.667C108.396 16.8438 108.532 17.0134 108.774 17.1384C109.016 17.2634 109.345 17.3337 109.687 17.3337C110.029 17.3337 110.357 17.2634 110.599 17.1384C110.841 17.0134 110.977 16.8438 110.977 16.667V3.33366C110.977 3.15685 110.841 2.98728 110.599 2.86225C110.357 2.73723 110.029 2.66699 109.687 2.66699Z" fill="#C4C4C4"/>
<path d="M125.171 6C124.829 6 124.501 6.07024 124.259 6.19526C124.017 6.32029 123.881 6.48986 123.881 6.66667V13.3333C123.881 13.5101 124.017 13.6797 124.259 13.8047C124.501 13.9298 124.829 14 125.171 14C125.514 14 125.842 13.9298 126.084 13.8047C126.326 13.6797 126.462 13.5101 126.462 13.3333V6.66667C126.462 6.48986 126.326 6.32029 126.084 6.19526C125.842 6.07024 125.514 6 125.171 6Z" fill="#C4C4C4"/>
<path d="M120.009 2.66699C119.667 2.66699 119.339 2.73723 119.097 2.86225C118.855 2.98728 118.719 3.15685 118.719 3.33366V16.667C118.719 16.8438 118.855 17.0134 119.097 17.1384C119.339 17.2634 119.667 17.3337 120.009 17.3337C120.351 17.3337 120.68 17.2634 120.922 17.1384C121.164 17.0134 121.3 16.8438 121.3 16.667V3.33366C121.3 3.15685 121.164 2.98728 120.922 2.86225C120.68 2.73723 120.351 2.66699 120.009 2.66699Z" fill="#C4C4C4"/>
<path d="M114.848 0C114.506 0 114.178 0.0702379 113.936 0.195262C113.694 0.320286 113.558 0.489856 113.558 0.666667V19.3333C113.558 19.5101 113.694 19.6797 113.936 19.8047C114.178 19.9298 114.506 20 114.848 20C115.19 20 115.519 19.9298 115.761 19.8047C116.003 19.6797 116.138 19.5101 116.138 19.3333V0.666667C116.138 0.489856 116.003 0.320286 115.761 0.195262C115.519 0.0702379 115.19 0 114.848 0Z" fill="#C4C4C4"/>
<path d="M140.657 6C140.314 6 139.986 6.07024 139.744 6.19526C139.502 6.32029 139.366 6.48986 139.366 6.66667V13.3333C139.366 13.5101 139.502 13.6797 139.744 13.8047C139.986 13.9298 140.314 14 140.657 14C140.999 14 141.327 13.9298 141.569 13.8047C141.811 13.6797 141.947 13.5101 141.947 13.3333V6.66667C141.947 6.48986 141.811 6.32029 141.569 6.19526C141.327 6.07024 140.999 6 140.657 6Z" fill="#C4C4C4"/>
<path d="M135.495 2.66699C135.152 2.66699 134.824 2.73723 134.582 2.86225C134.34 2.98728 134.204 3.15685 134.204 3.33366V16.667C134.204 16.8438 134.34 17.0134 134.582 17.1384C134.824 17.2634 135.152 17.3337 135.495 17.3337C135.837 17.3337 136.165 17.2634 136.407 17.1384C136.649 17.0134 136.785 16.8438 136.785 16.667V3.33366C136.785 3.15685 136.649 2.98728 136.407 2.86225C136.165 2.73723 135.837 2.66699 135.495 2.66699Z" fill="#C4C4C4"/>
<path d="M130.333 0C129.991 0 129.663 0.0702379 129.421 0.195262C129.179 0.320286 129.043 0.489856 129.043 0.666667V19.3333C129.043 19.5101 129.179 19.6797 129.421 19.8047C129.663 19.9298 129.991 20 130.333 20C130.676 20 131.004 19.9298 131.246 19.8047C131.488 19.6797 131.624 19.5101 131.624 19.3333V0.666667C131.624 0.489856 131.488 0.320286 131.246 0.195262C131.004 0.0702379 130.676 0 130.333 0Z" fill="#C4C4C4"/>
<path d="M45.3793 5.99991C45.0371 5.99991 44.7088 6.07015 44.4668 6.19517C44.2248 6.32019 44.0889 6.48976 44.0889 6.66658V13.3332C44.0889 13.5101 44.2248 13.6796 44.4668 13.8046C44.7088 13.9297 45.0371 13.9999 45.3793 13.9999C45.7215 13.9999 46.0498 13.9297 46.2918 13.8046C46.5338 13.6796 46.6697 13.5101 46.6697 13.3332V6.66658C46.6697 6.48976 46.5338 6.32019 46.2918 6.19517C46.0498 6.07015 45.7215 5.99991 45.3793 5.99991Z" fill="#C4C4C4"/>
<path d="M83.017 6C82.6747 6 82.3465 6.07024 82.1045 6.19526C81.8625 6.32029 81.7266 6.48986 81.7266 6.66667V13.3333C81.7266 13.5101 81.8625 13.6797 82.1045 13.8047C82.3465 13.9298 82.6747 14 83.017 14C83.3592 14 83.6875 13.9298 83.9295 13.8047C84.1715 13.6797 84.3074 13.5101 84.3074 13.3333V6.66667C84.3074 6.48986 84.1715 6.32029 83.9295 6.19526C83.6875 6.07024 83.3592 6 83.017 6Z" fill="#C4C4C4"/>
<path d="M88.3939 6C88.0517 6 87.7235 6.07024 87.4815 6.19526C87.2395 6.32029 87.1035 6.48986 87.1035 6.66667V13.3333C87.1035 13.5101 87.2395 13.6797 87.4815 13.8047C87.7235 13.9298 88.0517 14 88.3939 14C88.7362 14 89.0644 13.9298 89.3064 13.8047C89.5484 13.6797 89.6844 13.5101 89.6844 13.3333V6.66667C89.6844 6.48986 89.5484 6.32029 89.3064 6.19526C89.0644 6.07024 88.7362 6 88.3939 6Z" fill="#C4C4C4"/>
<path d="M93.7709 6C93.4287 6 93.1004 6.07024 92.8584 6.19526C92.6164 6.32029 92.4805 6.48986 92.4805 6.66667V13.3333C92.4805 13.5101 92.6164 13.6797 92.8584 13.8047C93.1004 13.9298 93.4287 14 93.7709 14C94.1131 14 94.4414 13.9298 94.6834 13.8047C94.9254 13.6797 95.0613 13.5101 95.0613 13.3333V6.66667C95.0613 6.48986 94.9254 6.32029 94.6834 6.19526C94.4414 6.07024 94.1131 6 93.7709 6Z" fill="#C4C4C4"/>
<path d="M50.5414 2.66699C50.1992 2.66699 49.8709 2.73723 49.6289 2.86225C49.3869 2.98728 49.251 3.15685 49.251 3.33366V16.667C49.251 16.8438 49.3869 17.0134 49.6289 17.1384C49.8709 17.2634 50.1992 17.3337 50.5414 17.3337C50.8836 17.3337 51.2119 17.2634 51.4539 17.1384C51.6959 17.0134 51.8318 16.8438 51.8318 16.667V3.33366C51.8318 3.15685 51.6959 2.98728 51.4539 2.86225C51.2119 2.73723 50.8836 2.66699 50.5414 2.66699Z" fill="#C4C4C4"/>
<path d="M77.64 2.66699C77.2978 2.66699 76.9696 2.73723 76.7276 2.86225C76.4856 2.98728 76.3496 3.15685 76.3496 3.33366V16.667C76.3496 16.8438 76.4856 17.0134 76.7276 17.1384C76.9696 17.2634 77.2978 17.3337 77.64 17.3337C77.9823 17.3337 78.3105 17.2634 78.5525 17.1384C78.7945 17.0134 78.9305 16.8438 78.9305 16.667V3.33366C78.9305 3.15685 78.7945 2.98728 78.5525 2.86225C78.3105 2.73723 77.9823 2.66699 77.64 2.66699Z" fill="#C4C4C4"/>
<path d="M99.1469 2.66699C98.8046 2.66699 98.4764 2.73723 98.2344 2.86225C97.9924 2.98728 97.8564 3.15685 97.8564 3.33366V16.667C97.8564 16.8438 97.9924 17.0134 98.2344 17.1384C98.4764 17.2634 98.8046 17.3337 99.1469 17.3337C99.4891 17.3337 99.8173 17.2634 100.059 17.1384C100.301 17.0134 100.437 16.8438 100.437 16.667V3.33366C100.437 3.15685 100.301 2.98728 100.059 2.86225C99.8173 2.73723 99.4891 2.66699 99.1469 2.66699Z" fill="#C4C4C4"/>
<path d="M55.7025 0C55.3603 0 55.0321 0.0702379 54.7901 0.195262C54.5481 0.320286 54.4121 0.489856 54.4121 0.666667V19.3333C54.4121 19.5101 54.5481 19.6797 54.7901 19.8047C55.0321 19.9298 55.3603 20 55.7025 20C56.0448 20 56.373 19.9298 56.615 19.8047C56.857 19.6797 56.993 19.5101 56.993 19.3333V0.666667C56.993 0.489856 56.857 0.320286 56.615 0.195262C56.373 0.0702379 56.0448 0 55.7025 0Z" fill="#C4C4C4"/>
<path d="M61.5102 0C61.1679 0 60.8397 0.0702379 60.5977 0.195262C60.3557 0.320286 60.2197 0.489856 60.2197 0.666667V19.3333C60.2197 19.5101 60.3557 19.6797 60.5977 19.8047C60.8397 19.9298 61.1679 20 61.5102 20C61.8524 20 62.1806 19.9298 62.4226 19.8047C62.6646 19.6797 62.8006 19.5101 62.8006 19.3333V0.666667C62.8006 0.489856 62.6646 0.320286 62.4226 0.195262C62.1806 0.0702379 61.8524 0 61.5102 0Z" fill="#C4C4C4"/>
<path d="M66.8861 0C66.5439 0 66.2157 0.0702379 65.9737 0.195262C65.7317 0.320286 65.5957 0.489856 65.5957 0.666667V19.3333C65.5957 19.5101 65.7317 19.6797 65.9737 19.8047C66.2157 19.9298 66.5439 20 66.8861 20C67.2284 20 67.5566 19.9298 67.7986 19.8047C68.0406 19.6797 68.1766 19.5101 68.1766 19.3333V0.666667C68.1766 0.489856 68.0406 0.320286 67.7986 0.195262C67.5566 0.0702379 67.2284 0 66.8861 0Z" fill="#C4C4C4"/>
<path d="M72.2631 0C71.9208 0 71.5926 0.0702379 71.3506 0.195262C71.1086 0.320286 70.9727 0.489856 70.9727 0.666667V19.3333C70.9727 19.5101 71.1086 19.6797 71.3506 19.8047C71.5926 19.9298 71.9208 20 72.2631 20C72.6053 20 72.9336 19.9298 73.1756 19.8047C73.4176 19.6797 73.5535 19.5101 73.5535 19.3333V0.666667C73.5535 0.489856 73.4176 0.320286 73.1756 0.195262C72.9336 0.0702379 72.6053 0 72.2631 0Z" fill="#C4C4C4"/>
<path d="M146.463 5.99991C146.121 5.99991 145.793 6.07015 145.551 6.19517C145.309 6.32019 145.173 6.48976 145.173 6.66658V13.3332C145.173 13.5101 145.309 13.6796 145.551 13.8046C145.793 13.9297 146.121 13.9999 146.463 13.9999C146.806 13.9999 147.134 13.9297 147.376 13.8046C147.618 13.6796 147.754 13.5101 147.754 13.3332V6.66658C147.754 6.48976 147.618 6.32019 147.376 6.19517C147.134 6.07015 146.806 5.99991 146.463 5.99991Z" fill="#C4C4C4"/>
<path d="M151.624 2.66699C151.282 2.66699 150.954 2.73723 150.712 2.86225C150.47 2.98728 150.334 3.15685 150.334 3.33366V16.667C150.334 16.8438 150.47 17.0134 150.712 17.1384C150.954 17.2634 151.282 17.3337 151.624 17.3337C151.967 17.3337 152.295 17.2634 152.537 17.1384C152.779 17.0134 152.915 16.8438 152.915 16.667V3.33366C152.915 3.15685 152.779 2.98728 152.537 2.86225C152.295 2.73723 151.967 2.66699 151.624 2.66699Z" fill="#C4C4C4"/>
<path d="M156.787 0C156.444 0 156.116 0.0702379 155.874 0.195262C155.632 0.320286 155.496 0.489856 155.496 0.666667V19.3333C155.496 19.5101 155.632 19.6797 155.874 19.8047C156.116 19.9298 156.444 20 156.787 20C157.129 20 157.457 19.9298 157.699 19.8047C157.941 19.6797 158.077 19.5101 158.077 19.3333V0.666667C158.077 0.489856 157.941 0.320286 157.699 0.195262C157.457 0.0702379 157.129 0 156.787 0Z" fill="#C4C4C4"/>
<path d="M162.593 0C162.251 0 161.923 0.0702379 161.681 0.195262C161.439 0.320286 161.303 0.489856 161.303 0.666667V19.3333C161.303 19.5101 161.439 19.6797 161.681 19.8047C161.923 19.9298 162.251 20 162.593 20C162.935 20 163.264 19.9298 163.506 19.8047C163.748 19.6797 163.884 19.5101 163.884 19.3333V0.666667C163.884 0.489856 163.748 0.320286 163.506 0.195262C163.264 0.0702379 162.935 0 162.593 0Z" fill="#C4C4C4"/>
</g>
<defs>
<clipPath id="clip0_66_502">
<rect width="164" height="20" fill="white"/>
</clipPath>
</defs>
</svg>
