<svg width="24" height="24" viewBox="0 0 24 24" fill="none" xmlns="http://www.w3.org/2000/svg">
<g clip-path="url(#clip0_206_2491)">
<path d="M9 10.125H15" stroke="#C2CCCA" stroke-width="2.25" stroke-linecap="round" stroke-linejoin="round"/>
<path d="M9 13.875H15" stroke="#C2CCCA" stroke-width="2.25" stroke-linecap="round" stroke-linejoin="round"/>
<path d="M12.375 20.25H4.46906C4.3746 20.2501 4.28104 20.2316 4.19374 20.1955C4.10645 20.1594 4.02713 20.1065 3.96033 20.0397C3.89354 19.9729 3.84058 19.8936 3.80448 19.8063C3.76839 19.719 3.74988 19.6254 3.75 19.5309V11.625C3.75 9.33751 4.6587 7.14371 6.2762 5.5262C7.89371 3.9087 10.0875 3 12.375 3C13.5077 3 14.6292 3.22309 15.6756 3.65654C16.7221 4.08999 17.6729 4.7253 18.4738 5.5262C19.2747 6.32711 19.91 7.27792 20.3435 8.32436C20.7769 9.37079 21 10.4923 21 11.625C21 12.7577 20.7769 13.8792 20.3435 14.9256C19.91 15.9721 19.2747 16.9229 18.4738 17.7238C17.6729 18.5247 16.7221 19.16 15.6756 19.5935C14.6292 20.0269 13.5077 20.25 12.375 20.25Z" stroke="#C2CCCA" stroke-width="2.25" stroke-linecap="round" stroke-linejoin="round"/>
</g>
<defs>
<clipPath id="clip0_206_2491">
<rect width="24" height="24" fill="white"/>
</clipPath>
</defs>
</svg>
