<svg width="6" height="22" viewBox="0 0 6 22" fill="none" xmlns="http://www.w3.org/2000/svg">
<path d="M5.7094 11C5.7094 11.5359 5.55048 12.0598 5.25273 12.5054C4.95499 12.951 4.5318 13.2983 4.03667 13.5034C3.54154 13.7085 2.99671 13.7622 2.47109 13.6576C1.94546 13.5531 1.46264 13.295 1.08369 12.916C0.704732 12.5371 0.446659 12.0543 0.342106 11.5286C0.237552 11.003 0.291213 10.4582 0.496302 9.96305C0.701391 9.46793 1.0487 9.04473 1.4943 8.74699C1.93991 8.44924 2.46379 8.29032 2.99972 8.29032C3.71837 8.29032 4.40759 8.57581 4.91575 9.08397C5.42391 9.59213 5.7094 10.2814 5.7094 11ZM2.99972 5.96774C3.53564 5.96774 4.05953 5.80882 4.50513 5.51108C4.95074 5.21334 5.29804 4.79014 5.50313 4.29502C5.70822 3.79989 5.76188 3.25506 5.65733 2.72944C5.55278 2.20381 5.2947 1.72099 4.91575 1.34204C4.53679 0.963081 4.05398 0.705009 3.52835 0.600455C3.00272 0.495902 2.4579 0.549563 1.96277 0.754652C1.46764 0.959741 1.04445 1.30705 0.746703 1.75265C0.44896 2.19826 0.290041 2.72214 0.290041 3.25807C0.290041 3.97672 0.575524 4.66593 1.08369 5.1741C1.59185 5.68226 2.28107 5.96774 2.99972 5.96774ZM2.99972 16.0323C2.46379 16.0323 1.93991 16.1912 1.4943 16.4889C1.0487 16.7867 0.701391 17.2099 0.496302 17.705C0.291213 18.2001 0.237552 18.7449 0.342106 19.2706C0.446659 19.7962 0.704732 20.279 1.08369 20.658C1.46264 21.0369 1.94546 21.295 2.47109 21.3995C2.99671 21.5041 3.54154 21.4504 4.03667 21.2454C4.5318 21.0403 4.95499 20.693 5.25273 20.2474C5.55048 19.8017 5.7094 19.2779 5.7094 18.7419C5.7094 18.0233 5.42391 17.3341 4.91575 16.8259C4.40759 16.3177 3.71837 16.0323 2.99972 16.0323Z" fill="black"/>
</svg>
