<svg width="343" height="343" viewBox="0 0 343 343" fill="none" xmlns="http://www.w3.org/2000/svg">
<rect width="343" height="343" rx="34.3" fill="#F3F5F9"/>
<path d="M98.8306 268.472V78.6946H180.442C201.667 78.6946 218.629 83.1899 231.327 92.1806C244.025 101.079 250.374 113.035 250.374 128.051C250.374 151.037 236.749 166.006 209.499 172.958C223.495 178.148 232.532 183.848 236.61 190.058C240.781 196.269 243.608 208.318 245.091 226.207C246.852 247.525 250.421 261.613 255.797 268.472H196.013C192.213 259.667 190.313 248.683 190.313 235.522L190.035 224.26L189.757 210.079C189.757 188.205 180.952 177.268 163.341 177.268H153.887V268.472H98.8306ZM153.887 161.557H165.009C185.864 161.557 196.291 150.666 196.291 128.885C196.291 107.103 185.864 96.2125 165.009 96.2125H153.887V161.557Z" fill="#242424"/>
</svg>
