<svg width="20" height="21" viewBox="0 0 20 21" fill="none" xmlns="http://www.w3.org/2000/svg">
<path d="M6.5068 10.5557C5.97576 9.23266 5.91791 7.7668 6.34301 6.40599C6.76811 5.04519 7.6501 3.87293 8.83983 3.08741C10.0296 2.3019 11.4541 1.95133 12.8725 2.09497C14.2909 2.23862 15.6162 2.86767 16.6243 3.87576C17.6324 4.88386 18.2614 6.20914 18.405 7.62755C18.5487 9.04596 18.1981 10.4705 17.4126 11.6602C16.6271 12.8499 15.4548 13.7319 14.094 14.157C12.7332 14.5821 11.2674 14.5243 9.9443 13.9932L8.8125 15.125H6.75V17.1875H4.6875V19.25H1.25V15.8125L6.5068 10.5557Z" stroke="white" stroke-width="2.24388" stroke-linecap="round" stroke-linejoin="round"/>
</svg>
