<svg width="106" height="20" viewBox="0 0 106 20" fill="none" xmlns="http://www.w3.org/2000/svg">
<path d="M0 19.076V0.923977H7.80605C9.83624 0.923977 11.4586 1.35395 12.6732 2.2139C13.8878 3.06499 14.495 4.20863 14.495 5.64484C14.495 7.84348 13.1918 9.27525 10.5854 9.94016C11.9241 10.4366 12.7884 10.9819 13.1785 11.5758C13.5775 12.1698 13.8479 13.3223 13.9897 15.0334C14.1582 17.0724 14.4995 18.42 15.0137 19.076H9.29544C8.93196 18.2338 8.75022 17.1832 8.75022 15.9243L8.72362 14.8472L8.69703 13.4908C8.69703 11.3985 7.85481 10.3524 6.17037 10.3524H5.26609V19.076H0ZM5.26609 8.84971H6.32994C8.32467 8.84971 9.32204 7.80801 9.32204 5.72463C9.32204 3.64124 8.32467 2.59955 6.32994 2.59955H5.26609V8.84971Z" fill="#242424"/>
<path d="M28.9635 0.923977V2.74583H22.4607V8.23799H27.9262V10.0598H22.4607V17.2542H30.0672V19.076H17.1946V0.923977H28.9635Z" fill="#242424"/>
<path d="M38.8308 9.27525H46.3043V19.076H44.6288L44.0569 17.826C42.5941 18.8633 41.0471 19.3819 39.4159 19.3819C36.7296 19.3819 34.6418 18.5796 33.1524 16.9749C31.6719 15.3614 30.9316 13.0918 30.9316 10.1662C30.9316 7.32041 31.7162 5.01982 33.2854 3.26446C34.8635 1.50023 36.9247 0.618118 39.4691 0.618118C42.8202 0.618118 44.8593 2.32915 45.5862 5.75122L43.1128 6.88157V6.44273L43.0729 5.45866C42.9044 3.32209 41.9159 2.2538 40.1074 2.2538C38.7776 2.2538 37.8689 2.82119 37.3812 3.95597C36.8936 5.09075 36.6498 7.20516 36.6498 10.2992C36.6498 13.1894 36.8449 15.1531 37.235 16.1903C37.6339 17.2276 38.3875 17.7462 39.4957 17.7462C40.7989 17.7462 41.4505 17.0192 41.4505 15.5653V11.0971H38.8308V9.27525Z" fill="#242424"/>
<path d="M54.1902 0.923977V19.076H48.9241V0.923977H54.1902Z" fill="#242424"/>
<path d="M74.204 0.923977V19.076H69.1241V6.44273L65.5867 19.076H62.6478L59.0174 6.6555V19.076H57.2488V0.923977H62.5946L65.7064 11.8817L68.8049 0.923977H74.204Z" fill="#242424"/>
<path d="M89.098 0.923977V2.74583H82.5951V8.23799H88.0607V10.0598H82.5951V17.2542H90.2017V19.076H77.329V0.923977H89.098Z" fill="#242424"/>
<path d="M105.136 0.923977V19.076H101.106L93.5263 7.58638V19.076H91.7576V0.923977H95.0954L103.367 13.3312V0.923977H105.136Z" fill="#242424"/>
</svg>
