<svg width="169" height="30" viewBox="0 0 169 30" fill="none" xmlns="http://www.w3.org/2000/svg">
<path d="M0.453125 29.511V0.489015H12.9336C16.1796 0.489015 18.7735 1.17647 20.7154 2.55138C22.6572 3.91212 23.6282 5.74061 23.6282 8.03686C23.6282 11.5521 21.5446 13.8413 17.3773 14.9043C19.5176 15.6981 20.8996 16.5698 21.5233 17.5195C22.1611 18.4692 22.5935 20.3118 22.8203 23.0475C23.0896 26.3076 23.6353 28.4621 24.4574 29.511H15.3149C14.7338 28.1644 14.4432 26.4848 14.4432 24.472L14.4007 22.7498L14.3582 20.5812C14.3582 17.236 13.0116 15.5634 10.3185 15.5634H8.87269V29.511H0.453125ZM8.87269 13.1609H10.5736C13.7628 13.1609 15.3575 11.4954 15.3575 8.16443C15.3575 4.83345 13.7628 3.16797 10.5736 3.16797H8.87269V13.1609Z" fill="white"/>
<path d="M46.7607 0.489015V3.40185H36.3639V12.1829H45.1023V15.0957H36.3639V26.5982H48.5254V29.511H27.9443V0.489015H46.7607Z" fill="white"/>
<path d="M62.5368 13.8413H74.4858V29.511H71.8068L70.8926 27.5124C68.5538 29.1708 66.0804 30 63.4723 30C59.1775 30 55.8394 28.7172 53.4581 26.1517C51.091 23.572 49.9074 19.9433 49.9074 15.2658C49.9074 10.7158 51.1619 7.03757 53.6707 4.23104C56.1938 1.41035 59.4893 0 63.5573 0C68.9153 0 72.1754 2.73565 73.3376 8.20695L69.383 10.0142V9.31255L69.3192 7.7392C69.0499 4.32318 67.4695 2.61517 64.5779 2.61517C62.4518 2.61517 60.9989 3.52233 60.2193 5.33664C59.4397 7.15096 59.0499 10.5315 59.0499 15.4784C59.0499 20.0992 59.3617 23.2389 59.9854 24.8973C60.6233 26.5557 61.8281 27.3849 63.5999 27.3849C65.6835 27.3849 66.7253 26.2226 66.7253 23.898V16.7541H62.5368V13.8413Z" fill="white"/>
<path d="M87.0939 0.489015V29.511H78.6743V0.489015H87.0939Z" fill="white"/>
<path d="M119.092 0.489015V29.511H110.971V9.31255L105.315 29.511H100.616L94.8118 9.65273V29.511H91.984V0.489015H100.531L105.506 18.0085L110.46 0.489015H119.092Z" fill="white"/>
<path d="M142.905 0.489015V3.40185H132.508V12.1829H141.247V15.0957H132.508V26.5982H144.67V29.511H124.089V0.489015H142.905Z" fill="white"/>
<path d="M168.547 0.489015V29.511H162.105L149.985 11.141V29.511H147.158V0.489015H152.494L165.719 20.326V0.489015H168.547Z" fill="white"/>
</svg>
