<svg width="14" height="14" viewBox="0 0 14 14" fill="none" xmlns="http://www.w3.org/2000/svg">
<path d="M8.69016 0H11.7299C11.9191 0 12.0724 0.153359 12.0724 0.342508V13.6575C12.0724 13.8466 11.9191 14 11.7299 14H8.69016C8.50102 14 8.34766 13.8466 8.34766 13.6575V0.342508C8.34766 0.153359 8.50102 0 8.69016 0Z" fill="black"/>
<path d="M2.26927 0H5.30902C5.49817 0 5.65153 0.153359 5.65153 0.342508V13.6575C5.65153 13.8466 5.49817 14 5.30902 14H2.26927C2.08012 14 1.92676 13.8466 1.92676 13.6575V0.342508C1.92676 0.153359 2.08012 0 2.26927 0Z" fill="black"/>
</svg>
