<svg width="16" height="16" viewBox="0 0 16 16" fill="none" xmlns="http://www.w3.org/2000/svg">
<path d="M15.875 8C15.875 8.17405 15.8059 8.34097 15.6828 8.46404C15.5597 8.58711 15.3928 8.65625 15.2188 8.65625H8.65625V15.2188C8.65625 15.3928 8.58711 15.5597 8.46404 15.6828C8.34097 15.8059 8.17405 15.875 8 15.875C7.82595 15.875 7.65903 15.8059 7.53596 15.6828C7.41289 15.5597 7.34375 15.3928 7.34375 15.2188V8.65625H0.78125C0.607202 8.65625 0.440282 8.58711 0.317211 8.46404C0.194141 8.34097 0.125 8.17405 0.125 8C0.125 7.82595 0.194141 7.65903 0.317211 7.53596C0.440282 7.41289 0.607202 7.34375 0.78125 7.34375H7.34375V0.78125C7.34375 0.607202 7.41289 0.440282 7.53596 0.317211C7.65903 0.194141 7.82595 0.125 8 0.125C8.17405 0.125 8.34097 0.194141 8.46404 0.317211C8.58711 0.440282 8.65625 0.607202 8.65625 0.78125V7.34375H15.2188C15.3928 7.34375 15.5597 7.41289 15.6828 7.53596C15.8059 7.65903 15.875 7.82595 15.875 8Z" fill="#2583B0"/>
</svg>
