<svg width="18" height="16" viewBox="0 0 18 16" fill="none" xmlns="http://www.w3.org/2000/svg">
<path d="M0.563239 7.99997C0.564894 6.42575 1.19098 4.91649 2.30412 3.80335C3.41726 2.69021 4.92652 2.06412 6.50074 2.06247H14.2351L13.9601 1.78825C13.8729 1.70104 13.8037 1.59751 13.7565 1.48357C13.7093 1.36963 13.6851 1.24751 13.6851 1.12418C13.6851 1.00086 13.7093 0.878737 13.7565 0.764797C13.8037 0.650857 13.8729 0.547328 13.9601 0.460122C14.0473 0.372916 14.1509 0.303741 14.2648 0.256545C14.3787 0.20935 14.5008 0.185059 14.6242 0.185059C14.7475 0.185059 14.8696 0.20935 14.9836 0.256545C15.0975 0.303741 15.201 0.372916 15.2882 0.460122L17.1632 2.33512C17.2506 2.42222 17.32 2.52571 17.3673 2.63967C17.4146 2.75362 17.439 2.8758 17.439 2.99918C17.439 3.12257 17.4146 3.24475 17.3673 3.3587C17.32 3.47266 17.2506 3.57615 17.1632 3.66325L15.2882 5.53825C15.1121 5.71437 14.8732 5.81331 14.6242 5.81331C14.3751 5.81331 14.1362 5.71437 13.9601 5.53825C13.784 5.36213 13.6851 5.12326 13.6851 4.87418C13.6851 4.62511 13.784 4.38624 13.9601 4.21012L14.2351 3.93747H6.50074C5.42368 3.93871 4.39109 4.36712 3.62949 5.12872C2.86789 5.89031 2.43948 6.9229 2.43824 7.99997C2.43824 8.24861 2.33947 8.48706 2.16365 8.66288C1.98784 8.83869 1.74938 8.93747 1.50074 8.93747C1.2521 8.93747 1.01364 8.83869 0.837827 8.66288C0.662011 8.48706 0.563239 8.24861 0.563239 7.99997ZM16.5007 7.06247C16.2521 7.06247 16.0136 7.16124 15.8378 7.33705C15.662 7.51287 15.5632 7.75133 15.5632 7.99997C15.562 9.07703 15.1336 10.1096 14.372 10.8712C13.6104 11.6328 12.5778 12.0612 11.5007 12.0625H3.76636L4.04136 11.7882C4.12857 11.701 4.19775 11.5975 4.24494 11.4836C4.29214 11.3696 4.31643 11.2475 4.31643 11.1242C4.31643 11.0009 4.29214 10.8787 4.24494 10.7648C4.19775 10.6509 4.12857 10.5473 4.04136 10.4601C3.95416 10.3729 3.85063 10.3037 3.73669 10.2565C3.62275 10.2094 3.50063 10.1851 3.3773 10.1851C3.25397 10.1851 3.13185 10.2094 3.01791 10.2565C2.90397 10.3037 2.80045 10.3729 2.71324 10.4601L0.838239 12.3351C0.750839 12.4222 0.681492 12.5257 0.634175 12.6397C0.586857 12.7536 0.5625 12.8758 0.5625 12.9992C0.5625 13.1226 0.586857 13.2447 0.634175 13.3587C0.681492 13.4727 0.750839 13.5761 0.838239 13.6632L2.71324 15.5382C2.80045 15.6255 2.90397 15.6946 3.01791 15.7418C3.13185 15.789 3.25397 15.8133 3.3773 15.8133C3.50063 15.8133 3.62275 15.789 3.73669 15.7418C3.85063 15.6946 3.95416 15.6255 4.04136 15.5382C4.12857 15.451 4.19775 15.3475 4.24494 15.2336C4.29214 15.1196 4.31643 14.9975 4.31643 14.8742C4.31643 14.7509 4.29214 14.6287 4.24494 14.5148C4.19775 14.4009 4.12857 14.2973 4.04136 14.2101L3.76636 13.9375H11.5007C13.075 13.9358 14.5842 13.3097 15.6974 12.1966C16.8105 11.0834 17.4366 9.57418 17.4382 7.99997C17.4382 7.75133 17.3395 7.51287 17.1637 7.33705C16.9878 7.16124 16.7494 7.06247 16.5007 7.06247Z" fill="#7C8684"/>
</svg>
