<svg width="22" height="22" viewBox="0 0 22 22" fill="none" xmlns="http://www.w3.org/2000/svg">
<g clip-path="url(#clip0_206_2404)">
<path fill-rule="evenodd" clip-rule="evenodd" d="M3.28449 8.66027C3.28449 7.75388 2.54861 7.018 1.64222 7.018C0.735883 7.018 0 7.75388 0 8.66027V13.3394C0 14.2458 0.735883 14.9817 1.64222 14.9817C2.54861 14.9817 3.28449 14.2458 3.28449 13.3394V8.66027Z" fill="#C2CCCA"/>
<path fill-rule="evenodd" clip-rule="evenodd" d="M7.96248 5.15122C7.96248 4.24479 7.22655 3.50887 6.32013 3.50887C5.41366 3.50887 4.67773 4.24479 4.67773 5.15122V16.8484C4.67773 17.7549 5.41366 18.4908 6.32013 18.4908C7.22655 18.4908 7.96248 17.7549 7.96248 16.8484V5.15122Z" fill="#C2CCCA"/>
<path fill-rule="evenodd" clip-rule="evenodd" d="M12.6431 1.6421C12.6431 0.735628 11.9072 -0.000297546 11.0008 -0.000297546C10.0943 -0.000297546 9.3584 0.735628 9.3584 1.6421V20.3579C9.3584 21.2644 10.0943 22.0003 11.0008 22.0003C11.9072 22.0003 12.6431 21.2644 12.6431 20.3579V1.6421Z" fill="#C2CCCA"/>
<path fill-rule="evenodd" clip-rule="evenodd" d="M17.3209 5.15122C17.3209 4.24479 16.585 3.50887 15.6785 3.50887C14.7721 3.50887 14.0361 4.24479 14.0361 5.15122V16.8484C14.0361 17.7549 14.7721 18.4908 15.6785 18.4908C16.585 18.4908 17.3209 17.7549 17.3209 16.8484V5.15122Z" fill="#C2CCCA"/>
<path fill-rule="evenodd" clip-rule="evenodd" d="M21.9996 8.6604C21.9996 7.75393 21.2637 7.018 20.3572 7.018C19.4508 7.018 18.7148 7.75393 18.7148 8.6604V13.3393C18.7148 14.2457 19.4508 14.9817 20.3572 14.9817C21.2637 14.9817 21.9996 14.2457 21.9996 13.3393V8.6604Z" fill="#C2CCCA"/>
</g>
<defs>
<clipPath id="clip0_206_2404">
<rect width="22" height="22" fill="white"/>
</clipPath>
</defs>
</svg>
