<svg width="24" height="24" viewBox="0 0 24 24" fill="none" xmlns="http://www.w3.org/2000/svg">
<path fill-rule="evenodd" clip-rule="evenodd" d="M4.98607 9.87283C4.98607 9.0488 4.31705 8.37978 3.49302 8.37978C2.66902 8.37978 2 9.0488 2 9.87283V14.1268C2 14.9509 2.66902 15.6199 3.49302 15.6199C4.31705 15.6199 4.98607 14.9509 4.98607 14.1268V9.87283Z" fill="black"/>
<path fill-rule="evenodd" clip-rule="evenodd" d="M9.23923 6.68261C9.23923 5.85854 8.57017 5.18948 7.7461 5.18948C6.92199 5.18948 6.25293 5.85854 6.25293 6.68261V17.317C6.25293 18.1412 6.92199 18.8102 7.7461 18.8102C8.57017 18.8102 9.23923 18.1412 9.23923 17.317V6.68261Z" fill="black"/>
<path fill-rule="evenodd" clip-rule="evenodd" d="M13.4941 3.49231C13.4941 2.6682 12.8251 1.99914 12.001 1.99914C11.1769 1.99914 10.5078 2.6682 10.5078 3.49231V20.5077C10.5078 21.3318 11.1769 22.0008 12.001 22.0008C12.8251 22.0008 13.4941 21.3318 13.4941 20.5077V3.49231Z" fill="black"/>
<path fill-rule="evenodd" clip-rule="evenodd" d="M17.747 6.68261C17.747 5.85854 17.078 5.18948 16.2539 5.18948C15.4298 5.18948 14.7607 5.85854 14.7607 6.68261V17.317C14.7607 18.1412 15.4298 18.8102 16.2539 18.8102C17.078 18.8102 17.747 18.1412 17.747 17.317V6.68261Z" fill="black"/>
<path fill-rule="evenodd" clip-rule="evenodd" d="M22.001 9.87295C22.001 9.04884 21.3319 8.37978 20.5078 8.37978C19.6837 8.37978 19.0146 9.04884 19.0146 9.87295V14.1267C19.0146 14.9508 19.6837 15.6199 20.5078 15.6199C21.3319 15.6199 22.001 14.9508 22.001 14.1267V9.87295Z" fill="black"/>
</svg>
