<svg width="20" height="20" viewBox="0 0 20 20" fill="none" xmlns="http://www.w3.org/2000/svg">
<path d="M18.8394 8.3887L13.5387 6.46112L11.6112 1.16049C11.4909 0.82969 11.2718 0.543909 10.9835 0.341958C10.6953 0.140008 10.3518 0.0316772 9.99984 0.0316772C9.64787 0.0316772 9.30442 0.140008 9.01615 0.341958C8.72787 0.543909 8.50874 0.82969 8.38851 1.16049L6.46093 6.46112L1.16031 8.3887C0.829507 8.50893 0.543725 8.72806 0.341775 9.01633C0.139825 9.30461 0.0314941 9.64805 0.0314941 10C0.0314941 10.352 0.139825 10.6954 0.341775 10.9837C0.543725 11.272 0.829507 11.4911 1.16031 11.6114L6.46093 13.5389L8.38851 18.8396C8.50874 19.1704 8.72787 19.4561 9.01615 19.6581C9.30442 19.86 9.64787 19.9684 9.99984 19.9684C10.3518 19.9684 10.6953 19.86 10.9835 19.6581C11.2718 19.4561 11.4909 19.1704 11.6112 18.8396L13.5387 13.5389L18.8394 11.6114C19.1702 11.4911 19.456 11.272 19.6579 10.9837C19.8599 10.6954 19.9682 10.352 19.9682 10C19.9682 9.64805 19.8599 9.30461 19.6579 9.01633C19.456 8.72806 19.1702 8.50893 18.8394 8.3887ZM12.682 11.6543C12.4462 11.7398 12.2321 11.876 12.0548 12.0533C11.8775 12.2306 11.7413 12.4447 11.6559 12.6804L9.99984 17.2351L8.34383 12.6804C8.25838 12.4447 8.12219 12.2306 7.94488 12.0533C7.76757 11.876 7.55348 11.7398 7.31773 11.6543L2.76304 10L7.31773 8.34401C7.55348 8.25856 7.76757 8.12237 7.94488 7.94506C8.12219 7.76776 8.25838 7.55366 8.34383 7.31791L9.99984 2.76323L11.6559 7.31791C11.7413 7.55366 11.8775 7.76776 12.0548 7.94506C12.2321 8.12237 12.4462 8.25856 12.682 8.34401L17.2366 10L12.682 11.6543Z" fill="white"/>
</svg>
