<svg width="16" height="16" viewBox="0 0 16 16" fill="none" xmlns="http://www.w3.org/2000/svg">
<path d="M7.79688 0.484375C5.7504 0.486536 3.78836 1.30045 2.34128 2.74753C0.894203 4.19461 0.0802861 6.15665 0.078125 8.20312V14.462C0.078518 14.8491 0.232453 15.2202 0.506149 15.4939C0.779845 15.7675 1.15094 15.9215 1.53801 15.9219H7.79688C9.84402 15.9219 11.8073 15.1087 13.2549 13.6611C14.7024 12.2136 15.5156 10.2503 15.5156 8.20312C15.5156 6.15599 14.7024 4.19269 13.2549 2.74514C11.8073 1.2976 9.84402 0.484375 7.79688 0.484375ZM7.79688 14.1406H1.85938V8.20312C1.85938 7.0288 2.2076 5.88084 2.86002 4.90443C3.51244 3.92801 4.43976 3.16699 5.52469 2.71759C6.60963 2.26819 7.80346 2.15061 8.95522 2.37971C10.107 2.60881 11.1649 3.1743 11.9953 4.00468C12.8257 4.83505 13.3912 5.89301 13.6203 7.04478C13.8494 8.19654 13.7318 9.39037 13.2824 10.4753C12.833 11.5602 12.072 12.4876 11.0956 13.14C10.1192 13.7924 8.9712 14.1406 7.79688 14.1406ZM7.20312 8.5C7.20312 8.73487 7.13348 8.96446 7.003 9.15974C6.87251 9.35502 6.68705 9.50723 6.47006 9.59711C6.25307 9.68699 6.01431 9.7105 5.78396 9.66468C5.5536 9.61886 5.34201 9.50576 5.17594 9.33969C5.00986 9.17361 4.89676 8.96202 4.85094 8.73167C4.80512 8.50132 4.82864 8.26255 4.91852 8.04556C5.0084 7.82858 5.1606 7.64311 5.35589 7.51263C5.55117 7.38215 5.78076 7.3125 6.01562 7.3125C6.33057 7.3125 6.63261 7.43761 6.85531 7.66031C7.07801 7.88301 7.20312 8.18506 7.20312 8.5ZM10.7656 8.5C10.7656 8.73487 10.696 8.96446 10.5655 9.15974C10.435 9.35502 10.2495 9.50723 10.0326 9.59711C9.81557 9.68699 9.57681 9.7105 9.34646 9.66468C9.1161 9.61886 8.90451 9.50576 8.73844 9.33969C8.57236 9.17361 8.45926 8.96202 8.41344 8.73167C8.36762 8.50132 8.39114 8.26255 8.48102 8.04556C8.5709 7.82858 8.7231 7.64311 8.91838 7.51263C9.11367 7.38215 9.34326 7.3125 9.57812 7.3125C9.89307 7.3125 10.1951 7.43761 10.4178 7.66031C10.6405 7.88301 10.7656 8.18506 10.7656 8.5Z" fill="white"/>
</svg>
