<svg width="26" height="19" viewBox="0 0 26 19" fill="none" xmlns="http://www.w3.org/2000/svg">
<path d="M13 0.3125C12.7348 0.3125 12.4804 0.38164 12.2929 0.504711C12.1054 0.627782 12 0.794702 12 0.96875V18.0312C12 18.2053 12.1054 18.3722 12.2929 18.4953C12.4804 18.6184 12.7348 18.6875 13 18.6875C13.2652 18.6875 13.5196 18.6184 13.7071 18.4953C13.8946 18.3722 14 18.2053 14 18.0312V0.96875C14 0.794702 13.8946 0.627782 13.7071 0.504711C13.5196 0.38164 13.2652 0.3125 13 0.3125Z" fill="black"/>
<path d="M17 4.90637C16.7348 4.90637 16.4804 4.97551 16.2929 5.09858C16.1054 5.22165 16 5.38857 16 5.56262V14.0939C16 14.2679 16.1054 14.4348 16.2929 14.5579C16.4804 14.681 16.7348 14.7501 17 14.7501C17.2652 14.7501 17.5196 14.681 17.7071 14.5579C17.8946 14.4348 18 14.2679 18 14.0939V5.56262C18 5.38857 17.8946 5.22165 17.7071 5.09858C17.5196 4.97551 17.2652 4.90637 17 4.90637Z" fill="black"/>
<path d="M21 2.9375C20.7348 2.9375 20.4804 3.00664 20.2929 3.12971C20.1054 3.25278 20 3.4197 20 3.59375V16.0625C20 16.2365 20.1054 16.4035 20.2929 16.5265C20.4804 16.6496 20.7348 16.7188 21 16.7188C21.2652 16.7188 21.5196 16.6496 21.7071 16.5265C21.8946 16.4035 22 16.2365 22 16.0625V3.59375C22 3.4197 21.8946 3.25278 21.7071 3.12971C21.5196 3.00664 21.2652 2.9375 21 2.9375Z" fill="black"/>
<path d="M25 6.875C24.7348 6.875 24.4804 6.94414 24.2929 7.06721C24.1054 7.19028 24 7.3572 24 7.53125V12.125C24 12.299 24.1054 12.466 24.2929 12.589C24.4804 12.7121 24.7348 12.7813 25 12.7813C25.2652 12.7813 25.5196 12.7121 25.7071 12.589C25.8946 12.466 26 12.299 26 12.125V7.53125C26 7.3572 25.8946 7.19028 25.7071 7.06721C25.5196 6.94414 25.2652 6.875 25 6.875Z" fill="black"/>
<path d="M9 4.90637C8.73478 4.90637 8.48043 4.97551 8.29289 5.09858C8.10536 5.22165 8 5.38857 8 5.56262V14.0939C8 14.2679 8.10536 14.4348 8.29289 14.5579C8.48043 14.681 8.73478 14.7501 9 14.7501C9.26522 14.7501 9.51957 14.681 9.70711 14.5579C9.89464 14.4348 10 14.2679 10 14.0939V5.56262C10 5.38857 9.89464 5.22165 9.70711 5.09858C9.51957 4.97551 9.26522 4.90637 9 4.90637Z" fill="black"/>
<path d="M5 2.9375C4.73478 2.9375 4.48043 3.00664 4.29289 3.12971C4.10536 3.25278 4 3.4197 4 3.59375V16.0625C4 16.2365 4.10536 16.4035 4.29289 16.5265C4.48043 16.6496 4.73478 16.7188 5 16.7188C5.26522 16.7188 5.51957 16.6496 5.70711 16.5265C5.89464 16.4035 6 16.2365 6 16.0625V3.59375C6 3.4197 5.89464 3.25278 5.70711 3.12971C5.51957 3.00664 5.26522 2.9375 5 2.9375Z" fill="black"/>
<path d="M1 6.875C0.734784 6.875 0.48043 6.94414 0.292893 7.06721C0.105357 7.19028 0 7.3572 0 7.53125V12.125C0 12.299 0.105357 12.466 0.292893 12.589C0.48043 12.7121 0.734784 12.7813 1 12.7813C1.26522 12.7813 1.51957 12.7121 1.70711 12.589C1.89464 12.466 2 12.299 2 12.125V7.53125C2 7.3572 1.89464 7.19028 1.70711 7.06721C1.51957 6.94414 1.26522 6.875 1 6.875Z" fill="black"/>
</svg>
